HIERARCHY
ROOT hip
{
  OFFSET 0 0 0
  CHANNELS 6 Xposition Yposition Zposition Zrotation Yrotation Xrotation
  JOINT abdomen
  {
    OFFSET 0 20.6881 -0.73152
    CHANNELS 3 Zrotation Xrotation Yrotation
    JOINT chest
    {
      OFFSET 0 11.7043 -0.48768
      CHANNELS 3 Zrotation Xrotation Yrotation
      JOINT neck
      {
        OFFSET 0 22.1894 -2.19456
        CHANNELS 3 Zrotation Xrotation Yrotation
        JOINT head
        {
          OFFSET -0.24384 7.07133 1.2192
          CHANNELS 3 Zrotation Xrotation Yrotation
          JOINT leftEye
          {
            OFFSET 4.14528 8.04674 8.04672
            CHANNELS 3 Zrotation Xrotation Yrotation
            End Site
            {
              OFFSET 1 0 0
            }
          }
          JOINT rightEye
          {
            OFFSET -3.6576 8.04674 8.04672
            CHANNELS 3 Zrotation Xrotation Yrotation
            End Site
            {
              OFFSET 1 0 0
            }
          }
        }
      }
      JOINT rCollar
      {
        OFFSET -2.68224 19.2634 -4.8768
        CHANNELS 3 Zrotation Xrotation Yrotation
        JOINT rShldr
        {
          OFFSET -8.77824 -1.95073 1.46304
          CHANNELS 3 Zrotation Xrotation Yrotation
          JOINT rForeArm
          {
            OFFSET -28.1742 -1.7115 0.48768
            CHANNELS 3 Zrotation Xrotation Yrotation
            JOINT rHand
            {
              OFFSET -22.5879 0.773209 7.07136
              CHANNELS 3 Zrotation Xrotation Yrotation
              JOINT rThumb1
              {
                OFFSET -1.2192 -0.487915 3.41376
                CHANNELS 3 Zrotation Xrotation Yrotation
                JOINT rThumb2
                {
                  OFFSET -3.37035 -0.52449 3.41376
                  CHANNELS 3 Zrotation Xrotation Yrotation
                  End Site
                  {
                    OFFSET -1.78271 -1.18214 1.43049
                  }
                }
              }
              JOINT rIndex1
              {
                OFFSET -7.75947 0.938293 5.60832
                CHANNELS 3 Zrotation Xrotation Yrotation
                JOINT rIndex2
                {
                  OFFSET -2.54057 -0.884171 1.56538
                  CHANNELS 3 Zrotation Xrotation Yrotation
                  End Site
                  {
                    OFFSET -1.62519 -0.234802 1.16502
                  }
                }
              }
              JOINT rMid1
              {
                OFFSET -8.24714 1.18213 3.41376
                CHANNELS 3 Zrotation Xrotation Yrotation
                JOINT rMid2
                {
                  OFFSET -3.10165 -0.590103 1.0647
                  CHANNELS 3 Zrotation Xrotation Yrotation
                  End Site
                  {
                    OFFSET -2.48547 -0.328903 0.83742
                  }
                }
              }
              JOINT rRing1
              {
                OFFSET -8.82822 0.546677 1.51678
                CHANNELS 3 Zrotation Xrotation Yrotation
                JOINT rRing2
                {
                  OFFSET -2.60934 -0.819778 -0.0198488
                  CHANNELS 3 Zrotation Xrotation Yrotation
                  End Site
                  {
                    OFFSET -2.33842 -0.294052 0.168128
                  }
                }
              }
              JOINT rPinky1
              {
                OFFSET -8.27202 -0.0477905 -0.4584
                CHANNELS 3 Zrotation Xrotation Yrotation
                JOINT rPinky2
                {
                  OFFSET -1.82734 -0.647385 -0.700984
                  CHANNELS 3 Zrotation Xrotation Yrotation
                  End Site
                  {
                    OFFSET -1.69225 -0.51767 -0.607171
                  }
                }
              }
            }
          }
        }
      }
      JOINT lCollar
      {
        OFFSET 2.68224 19.2634 -4.8768
        CHANNELS 3 Zrotation Xrotation Yrotation
        JOINT lShldr
        {
          OFFSET 8.77824 -1.95073 1.46304
          CHANNELS 3 Zrotation Xrotation Yrotation
          JOINT lForeArm
          {
            OFFSET 28.1742 -1.7115 0.48768
            CHANNELS 3 Zrotation Xrotation Yrotation
            JOINT lHand
            {
              OFFSET 22.5879 0.773209 7.07136
              CHANNELS 3 Zrotation Xrotation Yrotation
              JOINT lThumb1
              {
                OFFSET 1.2192 -0.487915 3.41376
                CHANNELS 3 Zrotation Xrotation Yrotation
                JOINT lThumb2
                {
                  OFFSET 3.37035 -0.52449 3.41376
                  CHANNELS 3 Zrotation Xrotation Yrotation
                  End Site
                  {
                    OFFSET 1.78271 -1.18214 1.43049
                  }
                }
              }
              JOINT lIndex1
              {
                OFFSET 7.75947 0.938293 5.60832
                CHANNELS 3 Zrotation Xrotation Yrotation
                JOINT lIndex2
                {
                  OFFSET 2.54057 -0.884171 1.56538
                  CHANNELS 3 Zrotation Xrotation Yrotation
                  End Site
                  {
                    OFFSET 1.62519 -0.234802 1.16502
                  }
                }
              }
              JOINT lMid1
              {
                OFFSET 8.24714 1.18213 3.41376
                CHANNELS 3 Zrotation Xrotation Yrotation
                JOINT lMid2
                {
                  OFFSET 3.10165 -0.590103 1.0647
                  CHANNELS 3 Zrotation Xrotation Yrotation
                  End Site
                  {
                    OFFSET 2.48547 -0.328903 0.83742
                  }
                }
              }
              JOINT lRing1
              {
                OFFSET 8.82822 0.546677 1.51678
                CHANNELS 3 Zrotation Xrotation Yrotation
                JOINT lRing2
                {
                  OFFSET 2.60934 -0.819778 -0.0198488
                  CHANNELS 3 Zrotation Xrotation Yrotation
                  End Site
                  {
                    OFFSET 2.33842 -0.294052 0.168128
                  }
                }
              }
              JOINT lPinky1
              {
                OFFSET 8.27202 -0.0477905 -0.4584
                CHANNELS 3 Zrotation Xrotation Yrotation
                JOINT lPinky2
                {
                  OFFSET 1.82734 -0.647385 -0.700984
                  CHANNELS 3 Zrotation Xrotation Yrotation
                  End Site
                  {
                    OFFSET 1.69225 -0.51767 -0.607171
                  }
                }
              }
            }
          }
        }
      }
    }
  }
  JOINT rButtock
  {
    OFFSET -8.77824 4.35084 1.2192
    CHANNELS 3 Zrotation Xrotation Yrotation
    JOINT rThigh
    {
      OFFSET 0 -1.70687 -2.19456
      CHANNELS 3 Zrotation Xrotation Yrotation
      JOINT rShin
      {
        OFFSET 0 -36.8199 0.73152
        CHANNELS 3 Zrotation Xrotation Yrotation
        JOINT rFoot
        {
          OFFSET 0.73152 -45.1104 -5.12064
          CHANNELS 3 Zrotation Xrotation Yrotation
          End Site
          {
            OFFSET -1.1221 -3.69964 12.103
          }
        }
      }
    }
  }
  JOINT lButtock
  {
    OFFSET 8.77824 4.35084 1.2192
    CHANNELS 3 Zrotation Xrotation Yrotation
    JOINT lThigh
    {
      OFFSET 0 -1.70687 -2.19456
      CHANNELS 3 Zrotation Xrotation Yrotation
      JOINT lShin
      {
        OFFSET 0 -36.8199 0.73152
        CHANNELS 3 Zrotation Xrotation Yrotation
        JOINT lFoot
        {
          OFFSET -0.73152 -45.1104 -5.12064
          CHANNELS 3 Zrotation Xrotation Yrotation
          End Site
          {
            OFFSET 1.1221 -3.69964 12.103
          }
        }
      }
    }
  }
}
MOTION
Frames:	4
Frame Time:	0.00833333
-8.00803 55.149902 123.420006 -4.7126 -1.4724001 4.879 1.83729 21.5336 3.62406 1.2115399 -8.907219 1.13006 -5.5442 13.3827 -2.9445698 5.7681894 -35.144596 -3.8932796 0.0 0.0 0.0 0.0 0.0 0.0 -1.01473e-13 -2.5178698e-13 7.80172e-14 44.092003 30.8998 28.3416 -27.082499 -26.6066 61.755096 -4.5176706 -50.049 -9.65906 -2.07877e-09 1.51361e-08 -2.74584e-09 -3.4702101e-09 2.55771e-08 -4.8079998e-09 -2.07877e-09 1.51361e-08 -2.74585e-09 7.730911 5.47488 0.41731405 -2.07877e-09 1.51361e-08 -2.74585e-09 2.90554 0.965183 0.102902 -2.07876e-09 1.51361e-08 -2.74584e-09 10.2786 0.73180103 0.025912303 -2.07878e-09 1.51361e-08 -2.74583e-09 2.2216702 -0.733487 -0.20892 -1.01542005e-13 -2.51784e-13 7.77446e-14 -42.075195 47.286198 -48.18819 25.022198 -21.144499 -53.002197 0.009463201 -2.5736902 0.36194202 -6.81684e-10 6.51656e-09 1.28402e-09 -1.18638e-09 1.12627e-08 2.21934e-09 -6.81686e-10 6.5165398e-09 1.28402e-09 -7.730911 5.47488 -0.41731405 -6.8168204e-10 6.51656e-09 1.28402e-09 -2.90554 0.965183 -0.102902 -6.8169104e-10 6.51656e-09 1.28402e-09 -10.2786 0.73180103 -0.025912303 -6.81681e-10 6.51656e-09 1.28401e-09 -2.2216702 -0.733487 0.20892 -2.03217e-16 8e-44 -3.88251e-19 -0.45562202 -32.334793 -5.527069 -2.1253295 73.23509 3.8797698 -14.7735 -20.965302 -34.6127 2.03217e-16 8e-44 3.88251e-19 15.338799 -71.7049 20.506197 2.4004302 70.18301 -1.8330002 1.91423 -0.225184 12.7296
-8.40834 54.9672 120.528 -4.5285006 1.6910999 5.1980996 2.9703102 21.7965 2.09054 1.5311999 -9.27702 0.8221339 -5.62482 13.430599 -3.3099701 5.35536 -35.433105 -4.75709 0.0 0.0 0.0 0.0 0.0 0.0 -1.4705e-13 -1.12488e-13 8.8802006e-14 38.1633 31.2938 36.280598 -27.647999 -28.841099 65.385605 -4.502889 -49.991302 -9.639501 -1.4363001e-09 1.4943e-08 -2.3042699e-09 -2.38215e-09 2.5761501e-08 -4.02137e-09 -1.4363001e-09 1.4943e-08 -2.30428e-09 7.730911 5.47488 0.41731405 -1.4363001e-09 1.4943e-08 -2.30428e-09 2.90554 0.965183 0.102902 -1.43629e-09 1.4943e-08 -2.30428e-09 10.2786 0.73180103 0.025912303 -1.4363001e-09 1.4943e-08 -2.3042699e-09 2.2216702 -0.733487 -0.20892 -1.4705099e-13 -1.1248699e-13 8.8636604e-14 -34.052402 48.363102 -58.7908 24.395102 -19.8483 -50.9035 0.005612861 -1.3586801 0.19087301 2.6668398e-10 2.14632e-09 4.71235e-10 4.5579698e-10 3.7127998e-09 8.14358e-10 2.6668398e-10 2.14631e-09 4.71244e-10 -7.730911 5.47488 -0.41731405 2.66686e-10 2.14632e-09 4.71236e-10 -2.90554 0.965183 -0.102902 2.66677e-10 2.14632e-09 4.71236e-10 -10.2786 0.73180103 -0.025912303 2.66688e-10 2.14633e-09 4.71229e-10 -2.2216702 -0.733487 0.20892 -2.03217e-16 8e-44 -3.88251e-19 -1.8553001 -35.569 -9.2574005 -2.3741493 74.4767 4.1220393 -14.831001 -20.9622 -34.041206 2.03217e-16 8e-44 3.88251e-19 9.07772 -73.118706 15.120004 5.3505683 79.5905 -4.940029 2.2319002 -3.0366402 9.66216
-8.71131 54.8099 117.58 -4.0179 4.2462997 5.7671003 3.4530504 21.757402 0.86429113 1.8091003 -9.544191 0.5562001 -5.6823997 13.415198 -3.5713396 5.2279 -35.4782 -5.32368 0.0 0.0 0.0 0.0 0.0 0.0 -8.93074e-14 -7.4916297e-14 6.6662394e-14 31.396599 31.393799 45.2467 -28.111 -31.237398 69.162704 -4.36114 -49.4448 -9.45343 -4.28246e-10 1.08550005e-08 -1.30077e-09 -6.85486e-10 1.88727e-08 -2.25422e-09 -4.28245e-10 1.08550005e-08 -1.30079e-09 7.730911 5.47488 0.41731405 -4.28246e-10 1.08550005e-08 -1.3007799e-09 2.90554 0.965183 0.102902 -4.2823897e-10 1.08550005e-08 -1.3007799e-09 10.2786 0.73180103 0.025912303 -4.2824697e-10 1.08550005e-08 -1.30077e-09 2.2216702 -0.733487 -0.20892 -8.9326e-14 -7.49178e-14 6.64698e-14 -25.312704 48.212 -69.925606 23.5812 -18.342499 -48.266197 -0.0026823105 0.9309142 -0.13080901 -1.56256e-12 6.4989e-10 3.59704e-12 -6.53788e-12 1.1366e-09 9.71504e-12 -1.5629599e-12 6.4988e-10 3.6055698e-12 -7.730911 5.47488 -0.41731405 -1.56225e-12 6.49894e-10 3.6021002e-12 -2.90554 0.965183 -0.102902 -1.56793e-12 6.4988803e-10 3.5997399e-12 -10.2786 0.73180103 -0.025912303 -1.55717e-12 6.49892e-10 3.59597e-12 -2.2216702 -0.733487 0.20892 -2.03217e-16 8e-44 -3.88251e-19 -4.06713 -39.010803 -13.155499 -2.6693997 75.6913 4.395509 -14.5848 -20.669802 -33.136204 2.03217e-16 8e-44 3.88251e-19 3.8274922 -72.7299 10.869693 28.94513 87.708595 -28.664684 2.56834 -5.16237 9.258329
-8.945451 54.757797 114.651 -3.3191996 6.2178993 6.458099 3.2661097 21.4228 -0.0473996 2.04729 -9.70879 0.33255404 -5.7177706 13.336901 -3.7285004 5.39569 -35.2845 -5.58744 0.0 0.0 0.0 0.0 0.0 0.0 7.17564e-14 -1.39073e-13 1.15982e-14 23.753296 30.6092 55.03849 -28.3795 -33.7944 73.2951 -4.1067605 -48.4085 -9.11399 9.45394e-10 2.87205e-09 2.64654e-10 1.61977e-09 4.91069e-09 4.93453e-10 9.453921e-10 2.87206e-09 2.64645e-10 7.730911 5.47488 0.41731405 9.453921e-10 2.87206e-09 2.64646e-10 2.90554 0.965183 0.102902 9.45397e-10 2.87205e-09 2.64645e-10 10.2786 0.73180103 0.025912303 9.45387e-10 2.87206e-09 2.6465802e-10 2.2216702 -0.733487 -0.20892 7.1631896e-14 -1.3907701e-13 1.12441e-14 -16.543896 46.5833 -80.8293 22.493 -16.5172 -45.1203 0.020832295 4.29482 -0.604953 -1.48642e-09 2.02726e-09 -1.18895e-10 -2.57338e-09 3.53403e-09 -1.9459e-10 -1.4864301e-09 2.02725e-09 -1.18891e-10 -7.730911 5.47488 -0.41731405 -1.4864301e-09 2.0272701e-09 -1.18887e-10 -2.90554 0.965183 -0.102902 -1.4864301e-09 2.02725e-09 -1.1889299e-10 -10.2786 0.73180103 -0.025912303 -1.48642e-09 2.02726e-09 -1.1889299e-10 -2.2216702 -0.733487 0.20892 -2.03217e-16 8e-44 -3.88251e-19 -7.2078986 -42.624 -17.342302 -3.0179694 76.87891 4.707111 -14.057099 -20.070202 -31.9074 2.03217e-16 8e-44 3.88251e-19 0.6681075 -70.633 8.803282 166.87299 84.5808 -166.715 3.2334 -6.54706 11.521701
